#!OML:ASF F:\VICON\USERDATA\INSTALL\rory3\rory3.ASF
:FULLY-SPECIFIED
:DEGREES
786
root 5.00497 16.5725 2.03792 5.73778 -13.7828 -6.7859
lowerback 20.2838 -0.828027 3.92543
upperback 4.69284 -0.214395 1.40912
thorax -6.25116 -0.172589 -0.663956
lowerneck -14.0017 -0.30987 -2.17741
upperneck 37.0527 0.52005 -1.38651
head 15.3298 -0.354444 -0.132512
rclavicle -3.97569e-016 5.56597e-015
rhumerus -36.2609 -0.725995 -8.29445
rradius 27.5508
rwrist 11.5381
rhand -24.8804 -50.7339
rfingers 7.12502
rthumb 1.62712 -80.7075
lclavicle -3.97569e-016 5.56597e-015
lhumerus -34.1931 -1.61411 2.23933
lradius 23.4137
lwrist 11.3521
lhand -23.4972 -31.1888
lfingers 7.12502
lthumb 2.96295 -1.22962
rfemur -102.111 0.829269 27.7119
rtibia 99.123
rfoot 49.3408 4.97864
rtoes -3.50452
lfemur -30.329 3.32293 -23.5758
ltibia 49.229
lfoot -21.6576 9.4366
ltoes 15.4515
787
root 5.00462 16.5715 2.03591 5.65188 -13.7563 -6.89391
lowerback 20.395 -0.841933 4.04872
upperback 4.72837 -0.200736 1.43879
thorax -6.27049 -0.167752 -0.704872
lowerneck -13.969 -0.355195 -2.20553
upperneck 37.0068 0.443632 -1.34473
head 15.2994 -0.383708 -0.122067
rclavicle 1.98785e-014 -1.94809e-014
rhumerus -36.3216 -0.827754 -8.18826
rradius 27.4774
rwrist 11.8055
rhand -25.0481 -50.6225
rfingers 7.12502
rthumb 1.46515 -80.5972
lclavicle 1.98785e-014 -1.94809e-014
lhumerus -34.1094 -1.48093 2.18955
lradius 23.3953
lwrist 11.1973
lhand -23.5144 -31.0498
lfingers 7.12502
lthumb 2.94635 -1.09041
rfemur -101.962 0.82761 27.7933
rtibia 99.0985
rfoot 49.3599 4.7219
rtoes -3.46035
lfemur -30.2336 3.31998 -23.448
ltibia 49.2557
lfoot -21.7183 9.39269
ltoes 15.628
788
root 5.00428 16.5676 2.03358 5.64893 -13.7633 -6.9235
lowerback 20.4101 -0.8504 4.10583
upperback 4.7371 -0.200145 1.43126
thorax -6.26895 -0.168214 -0.745507
lowerneck -13.9489 -0.405112 -2.38018
upperneck 36.9547 0.32627 -1.09212
head 15.2683 -0.421955 -0.00343529
rclavicle 2.94201e-014 2.14687e-014
rhumerus -36.363 -0.656839 -8.23083
rradius 27.5744
rwrist 11.7435
rhand -24.629 -50.5983
rfingers 7.12502
rthumb 1.86989 -80.5699
lclavicle 2.94201e-014 2.14687e-014
lhumerus -34.0222 -1.20791 2.04334
lradius 23.2993
lwrist 10.7591
lhand -23.8667 -31.3261
lfingers 7.12502
lthumb 2.6061 -1.36226
rfemur -101.967 0.852653 27.8013
rtibia 99.0982
rfoot 49.4081 4.7585
rtoes -3.07888
lfemur -30.2449 3.25605 -23.4133
ltibia 49.284
lfoot -21.73 9.4081
ltoes 15.8727
789
root 5.00506 16.5665 2.03418 5.636 -13.7903 -6.87828
lowerback 20.3533 -0.865968 4.13737
upperback 4.75699 -0.221441 1.38285
thorax -6.21848 -0.178091 -0.810707
lowerneck -13.7984 -0.378506 -2.51492
upperneck 36.8271 0.313871 -0.86252
head 15.1692 -0.412449 0.116271
rclavicle 1.88845e-014 7.15625e-015
rhumerus -36.3108 -0.333162 -8.39061
rradius 27.7249
rwrist 11.4276
rhand -24.2075 -50.539
rfingers 7.12502
rthumb 2.27694 -80.5066
lclavicle 1.88845e-014 7.15625e-015
lhumerus -34.0257 -1.05921 1.89296
lradius 23.2587
lwrist 10.4358
lhand -24.1715 -31.7857
lfingers 7.12502
lthumb 2.31173 -1.81848
rfemur -101.967 0.838719 27.7532
rtibia 99.0944
rfoot 49.4306 5.06174
rtoes -2.79555
lfemur -30.2329 3.16319 -23.4699
ltibia 49.3055
lfoot -21.7005 9.55664
ltoes 15.8823
790
root 5.00535 16.5666 2.03673 5.58423 -13.8562 -6.8965
lowerback 20.3645 -0.867063 4.17841
upperback 4.78018 -0.215721 1.37418
thorax -6.19898 -0.175506 -0.844857
lowerneck -13.6316 -0.334099 -2.5521
upperneck 36.6703 0.362217 -0.805575
head 15.053 -0.386799 0.155765
rclavicle 2.21645e-014 -4.05521e-014
rhumerus -36.2294 -0.128008 -8.48025
rradius 27.7496
rwrist 10.8512
rhand -24.9611 -50.514
rfingers 7.12502
rthumb 1.54914 -80.4881
lclavicle 2.21645e-014 -4.05521e-014
lhumerus -34.1065 -1.16681 1.85719
lradius 23.3054
lwrist 10.4801
lhand -24.4087 -32.1532
lfingers 7.12502
lthumb 2.08268 -2.18357
rfemur -101.878 0.880047 27.7686
rtibia 99.0464
rfoot 49.3943 5.49098
rtoes -3.10346
lfemur -30.1612 3.15343 -23.4588
ltibia 49.3413
lfoot -21.7115 9.72048
ltoes 14.8493
791
root 5.00369 16.5644 2.03788 5.59384 -13.9852 -6.96679
lowerback 20.3633 -0.825477 4.19075
upperback 4.79652 -0.158559 1.39902
thorax -6.17795 -0.147674 -0.83965
lowerneck -13.6945 -0.325918 -2.53646
upperneck 36.6542 0.383228 -0.834689
head 15.06 -0.379541 0.144266
rclavicle 1.59028e-015 9.93923e-015
rhumerus -36.209 -0.177465 -8.43243
rradius 27.7731
rwrist 10.6205
rhand -25.5163 -50.6244
rfingers 7.12502
rthumb 1.01292 -80.6018
lclavicle 1.59028e-015 9.93923e-015
lhumerus -34.0828 -1.23571 1.84767
lradius 23.3005
lwrist 10.5352
lhand -24.4878 -31.945
lfingers 7.12502
lthumb 2.00624 -1.97467
rfemur -101.836 1.04017 27.8237
rtibia 98.9647
rfoot 49.3335 5.85621
rtoes -3.51558
lfemur -30.1716 3.26317 -23.3917
ltibia 49.403
lfoot -21.7507 9.81356
ltoes 14.0031
792
root 5.00125 16.559 2.03435 5.70265 -14.0736 -7.0108
lowerback 20.2574 -0.786683 4.21287
upperback 4.80756 -0.110332 1.39644
thorax -6.10807 -0.123401 -0.86783
lowerneck -13.8 -0.309873 -2.39389
upperneck 36.6576 0.424521 -0.984108
head 15.0868 -0.362862 0.0630234
rclavicle -6.26172e-015 -3.18055e-015
rhumerus -36.1964 -0.366658 -8.34242
rradius 27.8633
rwrist 10.9705
rhand -24.6486 -50.7902
rfingers 7.12502
rthumb 1.85091 -80.7619
lclavicle -6.26172e-015 -3.18055e-015
lhumerus -33.9512 -1.17435 1.7991
lradius 23.2386
lwrist 10.4623
lhand -24.4133 -31.9006
lfingers 7.12502
lthumb 2.07817 -1.93097
rfemur -101.931 1.1884 27.8503
rtibia 98.8766
rfoot 49.3682 6.00207
rtoes -3.6161
lfemur -30.3492 3.34908 -23.3449
ltibia 49.4873
lfoot -21.7262 9.81552
ltoes 14.9936
793
root 5.00004 16.5573 2.02976 5.75785 -14.0977 -7.12263
lowerback 20.2592 -0.801169 4.33576
upperback 4.80631 -0.103006 1.41177
thorax -6.10969 -0.121483 -0.922897
lowerneck -13.7666 -0.300401 -2.38982
upperneck 36.5625 0.443078 -1.00408
head 15.033 -0.355646 0.0576124
rclavicle 2.18663e-014 -1.19271e-014
rhumerus -36.1634 -0.200808 -8.41168
rradius 28.0441
rwrist 10.9115
rhand -23.5659 -51.045
rfingers 7.12502
rthumb 2.89655 -81.0051
lclavicle 2.18663e-014 -1.19271e-014
lhumerus -33.9421 -1.20239 1.74395
lradius 23.2255
lwrist 10.4691
lhand -24.1492 -32.4556
lfingers 7.12502
lthumb 2.33329 -2.48859
rfemur -101.908 1.26994 27.9499
rtibia 98.7855
rfoot 49.4908 5.87604
rtoes -3.17564
lfemur -30.4326 3.34894 -23.209
ltibia 49.5569
lfoot -21.724 9.76426
ltoes 15.7232
794
root 4.99793 16.5587 2.02968 5.69273 -14.1615 -7.17214
lowerback 20.3289 -0.79985 4.39168
upperback 4.83242 -0.0876172 1.40866
thorax -6.11711 -0.114838 -0.961582
lowerneck -13.8001 -0.310956 -2.4802
upperneck 36.5533 0.415572 -0.895201
head 15.036 -0.364878 0.114685
rclavicle -3.62782e-014 -2.66371e-014
rhumerus -36.2455 0.187742 -8.59764
rradius 28.4218
rwrist 10.2891
rhand -22.8837 -51.3983
rfingers 7.12502
rthumb 3.5554 -81.3484
lclavicle -3.62782e-014 -2.66371e-014
lhumerus -33.9622 -1.26953 1.70743
lradius 23.2298
lwrist 10.5486
lhand -23.9168 -32.766
lfingers 7.12502
lthumb 2.55775 -2.8016
rfemur -101.771 1.33597 28.0073
rtibia 98.7588
rfoot 49.4677 5.98767
rtoes -3.14488
lfemur -30.3324 3.33906 -23.1368
ltibia 49.5799
lfoot -21.7891 9.78514
ltoes 15.3198
795
root 4.99555 16.5595 2.02983 5.58206 -14.2811 -7.11208
lowerback 20.4056 -0.770911 4.34715
upperback 4.87924 -0.0613801 1.35178
thorax -6.10554 -0.101321 -1.00397
lowerneck -13.8947 -0.310644 -2.48611
upperneck 36.6214 0.404912 -0.849244
head 15.0909 -0.365342 0.132728
rclavicle 3.71727e-014 1.98785e-015
rhumerus -36.2907 0.076048 -8.60408
rradius 28.6242
rwrist 10.1351
rhand -22.4888 -51.6683
rfingers 7.12502
rthumb 3.93677 -81.6117
lclavicle 3.71727e-014 1.98785e-015
lhumerus -33.9365 -1.27615 1.65962
lradius 23.2429
lwrist 10.6101
lhand -23.8626 -32.7773
lfingers 7.12502
lthumb 2.61004 -2.81348
rfemur -101.64 1.41612 27.9538
rtibia 98.7711
rfoot 49.3289 6.01161
rtoes -3.4044
lfemur -30.1913 3.34232 -23.1856
ltibia 49.5533
lfoot -21.8297 9.8754
ltoes 15.1484
796
root 4.99398 16.5599 2.02592 5.50096 -14.3954 -7.03832
lowerback 20.4945 -0.751553 4.25945
upperback 4.8983 -0.0537201 1.30746
thorax -6.13147 -0.0971371 -1.00347
lowerneck -13.8684 -0.318512 -2.56904
upperneck 36.6565 0.387797 -0.771807
head 15.1015 -0.374412 0.176841
rclavicle 4.39314e-014 -2.46493e-014
rhumerus -36.1115 -0.334882 -8.45101
rradius 28.3596
rwrist 10.609
rhand -22.5894 -51.6639
rfingers 7.12502
rthumb 3.83961 -81.609
lclavicle 4.39314e-014 -2.46493e-014
lhumerus -33.9717 -1.2635 1.60929
lradius 23.2508
lwrist 10.635
lhand -23.8658 -32.6248
lfingers 7.12502
lthumb 2.60692 -2.66103
rfemur -101.554 1.50565 27.8625
rtibia 98.7505
rfoot 49.3114 5.57922
rtoes -3.21744
lfemur -30.1125 3.37538 -23.2525
ltibia 49.5109
lfoot -21.803 9.92669
ltoes 15.3235
797
root 4.99352 16.5593 2.02535 5.47296 -14.4435 -6.92177
lowerback 20.4656 -0.750778 4.1457
upperback 4.91864 -0.0809057 1.27711
thorax -6.09594 -0.108209 -0.964916
lowerneck -13.8708 -0.332682 -2.70093
upperneck 36.7188 0.370192 -0.674932
head 15.1322 -0.3883 0.237643
rclavicle -3.37934e-014 1.11319e-014
rhumerus -35.9261 -0.417758 -8.40889
rradius 28.133
rwrist 10.94
rhand -23.006 -51.6066
rfingers 7.12502
rthumb 3.43733 -81.5586
lclavicle -3.37934e-014 1.11319e-014
lhumerus -34.0303 -1.21805 1.58934
lradius 23.2481
lwrist 10.6274
lhand -23.9564 -32.1582
lfingers 7.12502
lthumb 2.51945 -2.19334
rfemur -101.577 1.49517 27.7522
rtibia 98.7352
rfoot 49.323 5.33999
rtoes -3.12906
lfemur -30.0794 3.40428 -23.3863
ltibia 49.4758
lfoot -21.7955 9.93946
ltoes 15.3863
798
root 4.994 16.5573 2.02915 5.50048 -14.4488 -6.86984
lowerback 20.34 -0.760819 4.1455
upperback 4.9528 -0.103364 1.26113
thorax -5.99399 -0.117018 -0.977144
lowerneck -14.0203 -0.34338 -2.73708
upperneck 36.8434 0.378668 -0.691433
head 15.2285 -0.394398 0.237924
rclavicle 6.75868e-015 2.38542e-014
rhumerus -35.8906 -0.362178 -8.42874
rradius 28.1352
rwrist 11.0214
rhand -23.3864 -51.7301
rfingers 7.12502
rthumb 3.0699 -81.6878
lclavicle 6.75868e-015 2.38542e-014
lhumerus -34.0219 -1.23345 1.61757
lradius 23.2561
lwrist 10.6943
lhand -23.9495 -31.7497
lfingers 7.12502
lthumb 2.52614 -1.78493
rfemur -101.626 1.43575 27.7365
rtibia 98.7217
rfoot 49.3059 5.27309
rtoes -3.15964
lfemur -30.08 3.39104 -23.4654
ltibia 49.4658
lfoot -21.8262 9.99488
ltoes 14.6336
799
root 4.9919 16.5536 2.0281 5.59443 -14.4376 -6.79559
lowerback 20.1795 -0.75525 4.11045
upperback 4.96241 -0.113776 1.23662
thorax -5.89993 -0.119853 -0.98187
lowerneck -14.2252 -0.372216 -2.76281
upperneck 37.0222 0.352469 -0.687969
head 15.3653 -0.411792 0.238705
rclavicle -5.04913e-014 3.65764e-014
rhumerus -35.9176 -0.507956 -8.38266
rradius 28.1174
rwrist 11.3052
rhand -23.5737 -51.9517
rfingers 7.12502
rthumb 2.88909 -81.9118
lclavicle -5.04913e-014 3.65764e-014
lhumerus -33.9089 -1.20819 1.64463
lradius 23.1692
lwrist 10.7758
lhand -23.9414 -31.6178
lfingers 7.12502
lthumb 2.53392 -1.65315
rfemur -101.756 1.42058 27.6882
rtibia 98.6975
rfoot 49.3981 5.21395
rtoes -3.28339
lfemur -30.2385 3.33262 -23.5505
ltibia 49.49
lfoot -21.8288 10.0814
ltoes 13.2494
